<?xml version="1.0" standalone="no"?>
   <!DOCTYPE svg PUBLIC "-//W3C//DTD SVG 1.1//EN" 
   "http://www.w3.org/Graphics/SVG/1.1/DTD/svg11.dtd"><svg id="svg" version="1.1" width="1824" height="2925" xmlns="http://www.w3.org/2000/svg"><path d="M962.261 254.250 C 958.105 260.438,949.680 274.657,943.539 285.850 C 937.397 297.042,930.738 307.842,928.740 309.850 C 926.742 311.857,921.286 320.031,916.615 328.013 C 911.944 335.995,906.295 343.226,904.061 344.084 C 901.827 344.941,900.000 347.619,900.000 350.035 C 900.000 352.452,897.850 356.578,895.223 359.205 C 888.722 365.707,891.712 379.147,903.243 395.250 C 908.264 402.263,911.379 408.000,910.163 408.000 C 908.948 408.000,910.778 411.038,914.230 414.750 C 918.990 419.871,920.848 426.671,921.928 442.922 C 923.427 465.495,919.948 475.156,906.449 485.903 C 903.273 488.431,895.777 499.855,889.791 511.290 L 878.907 532.080 890.953 544.007 C 897.579 550.567,903.000 556.984,903.000 558.265 C 903.000 559.547,905.676 561.445,908.947 562.483 C 912.218 563.521,917.159 569.143,919.927 574.976 C 924.836 585.321,924.765 585.966,917.005 601.291 C 912.629 609.932,908.195 621.276,907.150 626.501 C 906.105 631.725,904.069 636.000,902.625 636.000 C 901.181 636.000,900.000 639.439,900.000 643.643 C 900.000 655.518,887.153 665.299,868.496 667.630 C 854.536 669.374,852.006 670.742,848.910 678.217 C 845.645 686.100,835.585 692.585,832.072 689.072 C 831.260 688.260,826.299 688.738,821.048 690.134 C 815.796 691.530,805.454 693.532,798.063 694.583 C 790.673 695.635,783.571 697.147,782.281 697.945 C 778.487 700.289,780.960 717.613,786.693 728.860 C 793.707 742.616,793.411 745.394,784.500 749.454 C 775.835 753.402,775.054 757.877,781.739 765.264 C 786.118 770.103,785.543 771.464,774.171 783.182 C 767.402 790.157,762.457 796.457,763.182 797.182 C 763.907 797.907,767.529 795.471,771.232 791.768 L 777.964 785.036 783.714 792.136 C 789.152 798.853,789.357 803.484,784.836 817.500 C 783.772 820.800,785.514 818.172,788.707 811.660 C 793.811 801.253,793.998 799.084,790.257 793.742 C 784.923 786.127,784.941 784.488,790.416 779.012 C 794.305 775.124,794.143 773.719,789.061 767.259 C 783.829 760.608,783.713 759.318,787.815 753.461 C 790.304 749.907,794.289 747.000,796.670 747.000 C 801.342 747.000,802.380 743.380,798.750 739.750 C 797.513 738.512,796.387 736.600,796.249 735.500 C 796.110 734.400,794.362 729.538,792.362 724.697 C 788.058 714.271,788.987 703.651,794.250 703.125 C 796.313 702.919,798.338 702.531,798.750 702.264 C 799.163 701.997,807.887 701.241,818.137 700.584 C 838.094 699.304,855.891 692.525,861.932 683.901 C 863.980 680.976,870.499 677.814,876.419 676.873 C 882.338 675.932,890.785 673.793,895.190 672.118 C 900.741 670.007,904.800 670.073,908.417 672.332 C 913.777 675.680,921.000 688.497,921.000 694.661 C 921.000 696.567,910.791 701.157,898.312 704.861 C 881.193 709.943,875.007 713.221,873.108 718.217 C 871.723 721.858,865.733 728.543,859.795 733.071 C 851.609 739.315,849.000 743.492,849.000 750.350 C 849.000 755.324,847.574 762.343,845.831 765.947 C 842.849 772.112,843.027 772.080,848.831 765.418 C 852.224 761.522,855.021 755.447,855.046 751.918 C 855.092 745.508,859.133 736.760,861.335 738.304 C 863.913 740.112,878.257 728.495,881.936 721.619 C 885.316 715.304,888.748 713.994,906.499 712.245 C 917.848 711.127,927.858 709.039,928.744 707.606 C 931.326 703.428,938.510 704.583,945.179 710.250 C 957.824 720.995,971.871 736.129,970.485 737.515 C 969.697 738.303,970.269 740.422,971.757 742.224 C 973.406 744.221,972.715 750.183,969.986 757.500 C 967.525 764.100,964.785 772.561,963.896 776.302 C 961.481 786.472,949.965 792.913,913.922 804.251 C 894.712 810.295,880.732 816.347,879.851 819.000 C 871.760 843.380,862.141 852.285,837.191 858.493 C 820.662 862.606,817.627 865.464,814.622 879.750 C 813.365 885.724,811.040 888.025,806.193 888.091 C 800.204 888.173,800.052 888.504,804.750 891.240 C 811.696 895.286,811.391 906.512,803.939 921.120 C 800.605 927.654,798.512 933.000,799.286 933.000 C 803.121 933.000,790.504 955.696,781.868 964.332 C 771.801 974.399,757.136 978.191,724.560 979.149 C 713.382 979.478,712.186 980.411,705.839 993.750 C 702.110 1001.588,697.621 1008.000,695.865 1008.000 C 694.108 1008.000,686.953 1010.605,679.964 1013.789 C 660.627 1022.598,627.071 1029.533,614.250 1027.370 C 607.318 1026.201,603.000 1026.656,603.000 1028.555 C 603.000 1030.251,608.063 1032.057,614.250 1032.569 C 623.190 1033.309,625.500 1034.732,625.500 1039.500 C 625.500 1043.680,622.398 1046.503,615.273 1048.806 C 609.648 1050.624,602.147 1054.901,598.605 1058.310 C 595.062 1061.720,586.839 1065.471,580.332 1066.646 C 573.824 1067.821,567.150 1069.780,565.500 1071.000 C 563.850 1072.220,557.485 1074.121,551.355 1075.225 C 545.226 1076.329,539.520 1078.350,538.676 1079.716 C 536.802 1082.747,559.103 1078.785,571.500 1073.884 C 576.450 1071.927,585.225 1070.140,591.000 1069.913 C 598.782 1069.607,602.267 1067.753,604.461 1062.750 C 606.090 1059.038,609.465 1055.794,611.961 1055.543 C 621.152 1054.618,622.633 1054.133,629.250 1049.888 C 632.963 1047.506,636.000 1042.680,636.000 1039.165 C 636.000 1033.745,638.322 1032.465,651.262 1030.748 C 659.656 1029.635,668.768 1027.437,671.512 1025.863 C 676.106 1023.228,691.457 1016.850,696.750 1015.376 C 697.988 1015.032,700.013 1014.421,701.250 1014.020 C 702.488 1013.618,704.528 1013.454,705.784 1013.656 C 707.040 1013.857,710.915 1008.160,714.396 1000.995 L 720.725 987.968 750.740 987.428 C 767.248 987.131,782.043 986.091,783.617 985.119 C 788.135 982.327,796.107 996.122,796.748 1007.839 C 797.068 1013.702,797.650 1018.838,798.040 1019.250 C 798.431 1019.663,799.088 1021.350,799.500 1023.000 C 799.913 1024.650,800.519 1026.338,800.848 1026.750 C 801.177 1027.163,802.038 1030.708,802.762 1034.629 C 803.486 1038.550,805.951 1045.975,808.241 1051.129 C 815.142 1066.666,815.896 1074.498,811.339 1083.311 C 808.953 1087.926,806.952 1094.807,806.894 1098.601 C 806.727 1109.407,799.448 1119.941,791.625 1120.698 C 787.706 1121.078,778.763 1122.201,771.750 1123.194 C 740.719 1127.590,733.961 1127.617,725.766 1123.379 C 721.109 1120.971,715.543 1119.057,713.399 1119.126 C 711.255 1119.195,713.911 1121.604,719.303 1124.480 C 728.138 1129.193,728.700 1130.263,724.996 1135.329 C 721.509 1140.097,717.091 1140.899,695.822 1140.623 C 680.818 1140.428,669.082 1141.687,666.585 1143.759 C 664.292 1145.663,660.184 1147.566,657.457 1147.989 C 654.731 1148.412,647.100 1150.126,640.500 1151.798 C 629.062 1154.695,629.273 1154.765,645.000 1153.280 C 667.056 1151.198,671.540 1150.460,673.396 1148.604 C 674.260 1147.740,686.869 1147.547,701.417 1148.174 C 726.715 1149.265,728.212 1148.970,735.778 1141.404 C 742.650 1134.532,746.734 1133.326,766.868 1132.222 C 779.617 1131.524,790.664 1130.336,791.418 1129.582 C 793.408 1127.592,804.000 1133.730,804.000 1136.873 C 804.000 1141.098,781.292 1147.917,764.444 1148.750 C 761.526 1148.894,757.815 1153.350,755.668 1159.288 C 751.406 1171.074,747.405 1172.737,727.971 1170.797 C 719.086 1169.911,713.863 1170.604,713.625 1172.702 C 713.419 1174.516,713.081 1178.819,712.875 1182.265 C 712.669 1185.711,709.698 1190.799,706.273 1193.572 C 702.848 1196.346,697.492 1202.639,694.370 1207.557 C 689.679 1214.947,690.952 1214.286,701.700 1203.750 C 708.853 1196.738,715.897 1191.000,717.353 1191.000 C 718.809 1191.000,720.000 1188.300,720.000 1185.000 C 720.000 1178.819,719.720 1178.891,747.496 1177.894 C 758.349 1177.505,763.143 1175.121,763.875 1169.750 C 764.081 1168.237,764.419 1165.825,764.625 1164.390 C 764.968 1162.002,783.696 1155.647,795.348 1153.966 C 807.774 1152.173,813.984 1144.339,814.902 1129.301 C 815.399 1121.160,818.551 1106.523,821.906 1096.772 C 827.535 1080.413,827.673 1077.866,823.699 1063.772 C 813.454 1027.440,812.078 1020.389,811.308 1000.263 L 810.496 979.026 823.107 980.940 C 838.657 983.300,843.894 986.344,841.799 991.803 C 839.825 996.948,843.518 997.282,848.400 992.400 C 855.497 985.303,852.436 978.403,840.750 975.158 C 834.563 973.439,828.503 972.026,827.284 972.017 C 826.066 972.008,822.353 969.675,819.034 966.833 C 812.739 961.443,810.433 940.097,815.525 934.350 C 816.914 932.782,819.693 923.816,821.701 914.425 C 825.052 898.753,826.218 897.063,835.886 893.873 C 841.680 891.960,847.105 888.611,847.942 886.430 C 850.182 880.592,858.157 878.396,862.880 882.316 C 868.606 887.068,868.028 890.032,861.015 891.865 C 853.005 893.960,850.376 901.860,854.886 910.287 C 857.838 915.802,857.773 918.444,854.563 923.585 C 852.360 927.113,849.531 930.000,848.278 930.000 C 843.467 930.000,846.290 935.688,852.001 937.500 C 855.302 938.548,862.669 943.807,868.374 949.187 C 874.078 954.567,882.304 961.563,886.653 964.734 C 891.002 967.905,895.698 973.200,897.090 976.500 C 899.576 982.396,899.623 982.392,899.810 976.246 C 899.996 970.130,884.967 954.000,879.083 954.000 C 877.450 954.000,875.258 950.589,874.212 946.421 C 873.166 942.252,869.765 937.480,866.655 935.815 C 859.915 932.208,859.113 924.000,865.500 924.000 C 871.462 924.000,871.208 918.307,864.935 911.376 C 860.116 906.051,860.552 905.154,873.935 892.867 C 881.671 885.765,888.054 880.752,888.120 881.727 C 888.186 882.702,890.304 879.692,892.827 875.039 C 897.007 867.327,898.713 866.646,912.079 867.355 C 924.589 868.019,927.570 867.058,932.362 860.817 C 935.451 856.793,938.841 851.138,939.895 848.250 C 940.949 845.363,943.721 843.000,946.055 843.000 C 949.678 843.000,949.708 841.286,946.257 831.269 C 944.034 824.817,941.581 816.042,940.806 811.769 C 939.385 803.932,939.704 803.722,954.412 802.806 C 957.114 802.638,961.983 800.103,965.232 797.174 C 973.897 789.363,977.593 795.703,978.857 820.545 C 979.738 837.854,978.935 842.329,973.913 848.105 C 970.616 851.897,966.764 855.000,965.353 855.000 C 959.594 855.000,948.175 864.853,950.196 868.078 C 951.376 869.960,952.400 872.850,952.472 874.500 C 952.847 883.143,961.538 909.000,964.067 909.000 C 965.680 909.000,966.257 909.743,965.350 910.650 C 964.442 911.558,964.749 916.955,966.032 922.644 C 971.740 947.949,949.426 991.016,910.818 1029.212 C 885.320 1054.438,882.010 1061.667,890.999 1072.499 C 896.223 1078.794,891.739 1089.893,884.714 1088.056 C 881.574 1087.235,878.236 1087.809,877.296 1089.331 C 876.355 1090.853,874.422 1091.379,873.000 1090.500 C 871.578 1089.621,869.329 1090.612,868.003 1092.701 C 865.125 1097.236,864.679 1113.000,867.429 1113.000 C 870.700 1113.000,873.362 1122.915,870.586 1124.760 C 869.147 1125.717,863.114 1133.925,857.180 1143.000 C 851.246 1152.075,843.915 1162.200,840.889 1165.500 C 837.863 1168.800,831.362 1177.500,826.443 1184.834 C 816.355 1199.875,801.797 1215.098,784.429 1228.769 C 773.352 1237.487,772.689 1238.912,773.262 1252.769 C 773.597 1260.871,772.747 1269.285,771.375 1271.466 C 767.239 1278.038,752.913 1277.913,746.248 1271.248 C 741.214 1266.214,737.746 1265.533,724.870 1267.049 C 701.499 1269.801,699.633 1270.367,691.963 1277.037 C 688.042 1280.446,682.284 1284.716,679.167 1286.526 C 674.575 1289.193,674.409 1289.835,678.291 1289.909 C 680.926 1289.959,686.083 1287.397,689.751 1284.216 C 699.383 1275.862,732.153 1272.666,741.445 1279.174 C 745.235 1281.828,747.022 1284.021,745.418 1284.046 C 743.813 1284.071,744.391 1285.289,746.703 1286.753 C 749.301 1288.398,755.461 1287.807,762.830 1285.207 C 769.389 1282.893,776.994 1281.000,779.730 1281.000 C 787.286 1281.000,796.170 1298.635,797.377 1316.032 C 798.347 1330.004,797.678 1332.073,790.710 1336.638 C 781.636 1342.584,771.503 1339.696,758.222 1327.381 C 749.947 1319.708,738.000 1317.416,738.000 1323.500 C 738.000 1325.425,737.230 1326.230,736.288 1325.288 C 735.346 1324.346,731.056 1325.402,726.753 1327.634 C 722.450 1329.867,717.974 1331.102,716.805 1330.379 C 715.636 1329.657,713.118 1330.948,711.209 1333.248 C 709.300 1335.548,699.529 1339.889,689.497 1342.894 C 673.579 1347.662,670.683 1349.706,666.764 1358.929 C 664.293 1364.743,661.315 1371.525,660.145 1374.000 C 658.976 1376.475,651.377 1381.875,643.259 1386.000 C 635.142 1390.125,628.050 1394.513,627.500 1395.750 C 626.950 1396.988,624.759 1398.000,622.630 1398.000 C 620.064 1398.000,618.666 1402.715,618.480 1412.001 C 618.325 1419.701,616.965 1427.235,615.456 1428.744 C 613.820 1430.380,596.167 1430.470,571.697 1428.967 L 530.681 1426.449 518.801 1437.526 C 507.465 1448.097,506.546 1448.408,498.711 1444.320 C 488.413 1438.948,483.059 1439.012,475.677 1444.595 C 472.474 1447.018,468.174 1449.000,466.122 1449.000 C 464.070 1449.000,458.590 1450.557,453.945 1452.461 C 449.300 1454.365,443.475 1456.382,441.000 1456.944 C 415.756 1462.680,362.079 1448.079,344.767 1430.767 C 338.842 1424.842,337.710 1424.698,328.943 1428.752 C 323.749 1431.154,308.860 1436.636,295.856 1440.935 C 274.849 1447.879,271.165 1448.314,262.831 1444.832 C 257.672 1442.676,250.785 1441.848,247.526 1442.991 C 242.838 1444.635,244.093 1445.537,253.527 1447.307 C 269.781 1450.356,271.206 1451.695,265.230 1458.298 C 260.331 1463.712,260.360 1464.000,265.813 1464.000 C 268.972 1464.000,273.201 1461.367,275.211 1458.149 C 278.540 1452.818,282.492 1451.496,306.088 1447.820 C 310.262 1447.169,319.208 1444.980,325.968 1442.955 C 337.022 1439.643,339.126 1439.897,346.879 1445.476 C 359.158 1454.311,391.303 1463.708,413.298 1464.892 C 423.637 1465.449,432.784 1465.216,433.625 1464.375 C 434.466 1463.534,438.157 1462.406,441.827 1461.869 C 451.494 1460.455,478.054 1451.671,481.101 1448.880 C 482.531 1447.570,489.755 1448.320,497.153 1450.547 L 510.605 1454.595 521.031 1444.169 C 531.273 1433.927,531.812 1433.769,551.479 1435.238 C 570.732 1436.677,606.174 1437.702,620.250 1437.228 C 623.962 1437.102,626.840 1435.988,626.645 1434.750 C 626.449 1433.513,626.449 1426.220,626.645 1418.543 C 626.972 1405.694,627.773 1404.290,636.750 1400.847 C 642.113 1398.791,647.212 1396.971,648.083 1396.804 C 648.954 1396.637,655.029 1392.450,661.583 1387.500 C 669.979 1381.160,673.794 1375.840,674.494 1369.500 C 675.705 1358.531,679.009 1355.348,694.500 1350.228 C 701.100 1348.046,712.575 1343.540,720.000 1340.214 C 727.425 1336.888,733.630 1334.692,733.789 1335.333 C 733.948 1335.975,736.190 1334.747,738.772 1332.604 C 741.926 1329.987,744.104 1329.741,745.410 1331.854 C 746.479 1333.584,749.356 1335.000,751.804 1335.000 C 754.251 1335.000,757.884 1336.350,759.877 1338.001 C 761.869 1339.652,766.483 1343.364,770.130 1346.251 C 774.459 1349.679,778.236 1358.059,781.014 1370.403 L 785.267 1389.306 773.879 1398.458 C 767.615 1403.492,761.518 1407.358,760.331 1407.049 C 754.877 1405.632,753.858 1414.801,758.687 1421.834 C 761.582 1426.050,766.955 1436.044,770.628 1444.043 C 776.528 1456.891,776.815 1459.339,773.097 1465.043 C 770.783 1468.594,765.815 1480.179,762.058 1490.787 C 756.709 1505.892,755.962 1511.250,758.614 1515.497 C 763.915 1523.985,762.773 1527.895,751.271 1540.625 C 726.752 1567.763,721.414 1572.029,705.218 1577.430 C 689.201 1582.771,688.541 1583.403,689.476 1592.502 L 690.452 1602.000 675.440 1602.000 C 657.684 1602.000,652.471 1606.146,647.927 1623.885 C 646.149 1630.823,642.810 1641.410,640.508 1647.410 C 638.205 1653.411,637.148 1659.148,638.160 1660.160 C 639.172 1661.172,638.345 1662.000,636.323 1662.000 C 634.301 1662.000,633.482 1663.352,634.503 1665.005 C 636.588 1668.379,618.188 1686.470,614.800 1684.376 C 613.606 1683.638,611.850 1685.063,610.899 1687.543 C 609.947 1690.023,605.418 1693.711,600.834 1695.739 C 590.626 1700.256,586.969 1704.471,577.342 1722.820 C 573.209 1730.695,564.129 1742.989,557.164 1750.139 C 550.199 1757.288,541.734 1766.937,538.354 1771.581 C 534.973 1776.225,529.573 1780.409,526.354 1780.879 C 523.134 1781.348,516.450 1782.292,511.500 1782.975 C 506.550 1783.659,497.775 1785.090,492.000 1786.157 C 486.225 1787.223,478.800 1788.543,475.500 1789.089 C 467.160 1790.470,453.000 1796.481,453.000 1798.640 C 453.000 1800.883,468.454 1799.407,472.500 1796.777 C 477.989 1793.210,493.283 1790.352,512.946 1789.220 C 526.398 1788.445,534.913 1786.235,540.574 1782.050 C 545.075 1778.722,549.371 1776.000,550.121 1776.000 C 550.871 1776.000,550.844 1781.578,550.061 1788.396 C 548.843 1798.995,549.243 1800.186,552.818 1796.610 C 555.118 1794.310,557.192 1790.420,557.426 1787.964 C 559.814 1762.942,576.425 1724.781,586.634 1720.864 C 589.035 1719.942,591.000 1717.421,591.000 1715.261 C 591.000 1711.808,601.058 1701.000,604.271 1701.000 C 604.932 1701.000,606.426 1706.643,607.591 1713.541 C 608.757 1720.438,612.233 1730.573,615.316 1736.063 C 618.399 1741.552,620.845 1746.371,620.750 1746.772 C 620.656 1747.172,622.115 1751.543,623.994 1756.483 C 627.723 1766.292,627.183 1766.994,598.375 1789.770 C 588.427 1797.635,586.767 1800.562,587.416 1809.085 C 588.016 1816.960,586.380 1820.605,579.841 1825.957 C 569.409 1834.496,575.301 1835.273,586.095 1826.782 C 591.102 1822.844,594.008 1817.620,594.020 1812.532 C 594.035 1806.716,596.959 1802.513,604.621 1797.295 C 610.439 1793.332,619.713 1785.443,625.230 1779.763 C 634.549 1770.169,634.980 1768.873,631.316 1761.469 C 626.419 1751.575,619.799 1703.134,622.114 1694.137 C 623.053 1690.486,627.624 1684.982,632.271 1681.905 C 641.321 1675.914,649.296 1655.075,652.818 1628.221 C 654.389 1616.238,655.892 1613.639,662.164 1612.065 C 666.275 1611.033,674.189 1611.586,679.750 1613.293 C 689.306 1616.225,690.113 1615.892,694.431 1607.237 C 696.944 1602.200,699.000 1596.839,699.000 1595.325 C 699.000 1589.803,707.374 1584.398,713.462 1585.990 C 718.224 1587.235,721.167 1585.231,725.843 1577.562 C 729.217 1572.028,731.983 1568.698,731.989 1570.163 C 731.995 1571.627,735.747 1568.252,740.326 1562.663 C 744.905 1557.073,754.355 1546.761,761.326 1539.747 C 775.036 1525.951,775.852 1524.052,770.411 1518.611 C 766.195 1514.395,773.657 1507.603,785.983 1504.439 C 790.099 1503.382,795.356 1500.939,797.666 1499.009 C 799.976 1497.079,807.405 1493.438,814.175 1490.918 C 821.715 1488.110,828.812 1482.634,832.492 1476.783 C 835.985 1471.230,841.074 1467.183,844.650 1467.116 C 848.033 1467.052,852.302 1465.498,854.139 1463.661 C 855.975 1461.825,858.746 1461.107,860.298 1462.066 C 863.590 1464.101,863.567 1484.965,860.272 1485.032 C 859.046 1485.057,852.971 1487.981,846.772 1491.529 C 840.572 1495.077,832.125 1499.780,828.000 1501.980 C 808.315 1512.479,806.092 1516.949,802.880 1552.500 C 800.745 1576.124,798.130 1578.871,768.878 1588.220 C 754.149 1592.927,739.545 1598.645,736.424 1600.926 C 730.956 1604.925,730.943 1605.400,736.066 1614.073 C 743.069 1625.929,740.662 1632.071,724.447 1643.716 C 717.051 1649.027,711.000 1653.838,711.000 1654.406 C 711.000 1658.302,724.381 1650.512,734.670 1640.625 C 747.968 1627.847,750.749 1616.396,741.775 1611.374 C 734.984 1607.573,735.511 1607.260,762.000 1599.357 C 774.375 1595.665,786.905 1591.881,789.844 1590.948 C 794.550 1589.454,795.036 1590.881,793.913 1602.895 C 792.462 1618.435,790.356 1623.000,784.638 1623.000 C 782.433 1623.000,777.451 1626.428,773.565 1630.617 C 769.679 1634.806,762.221 1640.092,756.991 1642.363 C 751.762 1644.634,745.882 1649.484,743.925 1653.140 C 740.586 1659.379,741.003 1659.303,750.717 1651.894 C 765.042 1640.967,770.988 1641.510,771.046 1653.750 C 771.080 1661.046,771.806 1662.371,773.927 1659.015 C 775.486 1656.549,776.599 1650.198,776.400 1644.902 C 775.996 1634.161,780.299 1627.406,788.994 1625.132 C 794.701 1623.640,800.208 1632.000,796.970 1637.240 C 796.190 1638.501,796.855 1646.697,798.446 1655.453 L 801.339 1671.373 789.366 1682.993 C 770.801 1701.009,767.914 1706.867,769.317 1723.664 C 769.999 1731.824,771.996 1743.178,773.754 1748.894 C 776.354 1757.348,776.115 1759.757,772.475 1761.794 C 770.014 1763.171,767.955 1765.919,767.900 1767.899 C 767.649 1776.968,740.748 1796.052,734.051 1791.913 C 732.521 1790.968,732.247 1794.297,733.418 1799.625 C 735.194 1807.711,734.643 1809.000,729.415 1809.000 C 726.082 1809.000,722.587 1810.241,721.650 1811.757 C 720.713 1813.274,713.496 1815.898,705.612 1817.588 C 678.350 1823.435,674.064 1826.072,676.010 1835.802 C 678.150 1846.498,675.787 1848.395,651.426 1855.546 C 628.452 1862.291,619.114 1869.097,616.500 1881.002 C 614.070 1892.062,613.471 1892.424,593.641 1894.824 C 584.764 1895.898,575.475 1897.174,573.000 1897.659 C 570.525 1898.144,565.660 1898.644,562.188 1898.770 C 558.717 1898.897,552.196 1902.411,547.698 1906.579 C 539.163 1914.489,532.931 1914.872,496.500 1909.721 C 484.779 1908.064,484.727 1908.096,494.250 1911.098 C 506.171 1914.856,506.713 1918.628,495.750 1921.545 C 491.213 1922.752,489.234 1924.376,491.353 1925.154 C 493.473 1925.932,500.703 1924.370,507.421 1921.682 C 514.139 1918.994,524.864 1917.103,531.254 1917.480 C 540.055 1917.999,544.766 1916.387,550.678 1910.833 C 554.971 1906.800,559.050 1903.838,559.742 1904.250 C 560.434 1904.663,561.338 1904.897,561.750 1904.770 C 565.390 1903.656,576.377 1901.756,585.000 1900.750 C 590.775 1900.075,599.052 1898.625,603.394 1897.526 C 610.718 1895.672,611.382 1896.330,612.584 1906.624 C 614.265 1921.024,608.899 1927.004,588.411 1933.559 C 579.563 1936.391,568.763 1940.565,564.411 1942.835 C 560.060 1945.105,554.292 1946.971,551.593 1946.982 C 548.894 1946.992,542.819 1949.017,538.093 1951.482 C 533.367 1953.946,526.542 1955.971,522.927 1955.982 C 519.312 1955.992,515.634 1957.165,514.754 1958.588 C 513.874 1960.012,506.707 1962.837,498.827 1964.867 C 475.943 1970.760,471.000 1974.027,471.000 1983.255 C 471.000 1989.228,467.905 1993.894,459.750 2000.211 C 448.902 2008.615,422.886 2022.000,417.400 2022.000 C 415.934 2022.000,412.882 2024.245,410.617 2026.988 C 408.353 2029.731,407.850 2031.348,409.500 2030.580 C 411.150 2029.812,417.900 2026.808,424.500 2023.904 C 431.100 2021.001,441.225 2016.398,447.000 2013.676 C 452.775 2010.955,458.175 2008.667,459.000 2008.592 C 465.893 2007.968,475.166 1996.636,476.748 1986.904 C 477.768 1980.632,480.266 1975.331,482.301 1975.125 C 484.335 1974.919,486.338 1974.481,486.750 1974.152 C 487.163 1973.823,490.708 1972.962,494.629 1972.238 C 498.550 1971.514,505.975 1968.951,511.129 1966.543 C 523.352 1960.831,586.811 1939.225,598.837 1936.680 C 612.933 1933.698,621.000 1922.587,621.000 1906.156 C 621.000 1895.085,621.895 1892.701,625.529 1894.096 C 628.020 1895.052,637.132 1894.422,645.779 1892.696 C 654.425 1890.970,663.525 1889.201,666.000 1888.766 C 671.182 1887.853,683.877 1867.020,683.951 1859.307 C 683.981 1856.104,687.160 1853.417,692.250 1852.293 C 707.484 1848.930,748.462 1835.229,752.250 1832.232 C 756.732 1828.686,757.235 1816.117,753.000 1813.500 C 747.973 1810.393,749.563 1807.045,759.750 1799.288 C 779.313 1784.391,781.511 1785.212,787.445 1809.628 C 790.355 1821.598,793.141 1833.441,793.638 1835.946 C 794.135 1838.451,794.813 1840.838,795.145 1841.250 C 795.478 1841.663,795.919 1843.238,796.125 1844.750 C 796.331 1846.263,797.355 1848.355,798.400 1849.400 C 799.445 1850.445,799.192 1856.214,797.838 1862.220 C 796.127 1869.803,790.538 1877.586,779.543 1887.694 C 765.528 1900.579,764.130 1902.918,767.356 1908.084 C 773.513 1917.942,771.609 1922.533,754.305 1939.563 C 737.645 1955.959,737.617 1956.016,741.402 1966.481 C 744.790 1975.851,744.536 1977.851,739.023 1985.235 C 735.629 1989.781,731.423 1993.500,729.676 1993.500 C 723.479 1993.500,722.497 1997.684,726.256 2008.078 C 729.163 2016.116,729.236 2019.601,726.567 2022.817 C 722.483 2027.738,702.626 2034.228,685.500 2036.240 C 670.281 2038.027,666.000 2041.568,666.000 2052.367 C 666.000 2057.115,664.650 2061.000,663.000 2061.000 C 661.350 2061.000,660.000 2064.191,660.000 2068.092 C 660.000 2072.985,656.263 2077.774,647.946 2083.538 C 634.386 2092.935,633.878 2096.150,646.862 2090.399 C 658.462 2085.261,662.122 2080.275,667.560 2062.200 C 671.768 2048.218,673.222 2046.584,684.451 2043.219 C 692.338 2040.856,697.774 2040.574,699.630 2042.430 C 701.487 2044.287,701.355 2046.045,699.261 2047.338 C 697.468 2048.447,696.000 2055.493,696.000 2062.995 C 696.000 2073.973,694.535 2077.789,688.500 2082.536 C 684.375 2085.781,681.000 2089.897,681.000 2091.683 C 681.000 2093.469,683.469 2092.696,686.486 2089.965 C 694.781 2082.459,699.280 2083.767,697.783 2093.250 C 697.066 2097.788,695.550 2107.408,694.412 2114.630 C 692.948 2123.925,693.316 2127.159,695.672 2125.703 C 697.502 2124.571,699.000 2121.556,699.000 2119.002 C 699.000 2116.107,700.694 2115.008,703.500 2116.085 C 708.164 2117.874,709.871 2113.510,705.551 2110.841 C 704.205 2110.008,702.934 2098.911,702.728 2086.180 C 702.270 2057.935,706.839 2047.740,726.750 2032.577 C 734.588 2026.608,741.000 2020.390,741.000 2018.757 C 741.000 2017.125,738.697 2012.274,735.882 2007.979 C 730.815 2000.245,730.876 2000.075,742.085 1990.664 C 751.699 1982.593,753.099 1979.938,751.370 1973.052 C 750.251 1968.592,748.047 1964.147,746.472 1963.174 C 743.500 1961.337,752.013 1950.000,756.365 1950.000 C 757.704 1950.000,763.445 1945.355,769.121 1939.679 C 778.936 1929.864,779.304 1928.740,776.617 1916.783 C 775.063 1909.867,774.176 1904.044,774.646 1903.844 C 775.116 1903.644,779.752 1900.506,784.949 1896.873 C 790.146 1893.239,797.789 1889.414,801.933 1888.374 C 809.066 1886.584,809.665 1887.416,813.169 1903.992 C 815.205 1913.621,816.788 1923.525,816.687 1926.000 C 816.462 1931.476,827.524 1973.153,831.419 1981.509 C 832.960 1984.814,840.584 1989.985,848.360 1992.999 C 856.137 1996.013,865.538 1999.692,869.250 2001.175 C 876.698 2004.150,877.197 2008.043,872.690 2028.000 C 867.500 2050.981,860.582 2089.090,860.028 2097.750 C 859.738 2102.288,858.616 2106.000,857.534 2106.000 C 856.453 2106.000,856.287 2113.915,857.164 2123.588 C 858.202 2135.034,857.576 2141.908,855.371 2143.271 C 852.934 2144.777,852.879 2147.038,855.176 2151.329 C 857.401 2155.487,857.427 2160.203,855.259 2166.897 C 853.549 2172.179,852.220 2179.200,852.305 2182.500 C 852.389 2185.800,851.744 2194.575,850.870 2202.000 C 849.996 2209.425,848.553 2223.332,847.664 2232.904 C 846.774 2242.476,844.868 2252.601,843.429 2255.404 C 841.989 2258.207,841.467 2262.525,842.270 2265.000 C 846.011 2276.537,853.548 2290.728,857.088 2292.899 C 859.240 2294.219,861.000 2297.144,861.000 2299.399 C 861.000 2301.655,862.688 2304.112,864.750 2304.861 C 867.574 2305.886,867.216 2308.355,863.298 2314.861 C 849.099 2338.442,825.133 2392.150,823.745 2403.500 C 823.610 2404.600,822.488 2406.512,821.250 2407.750 C 820.013 2408.988,819.000 2414.293,819.000 2419.539 C 819.000 2424.786,817.054 2432.998,814.676 2437.789 C 812.299 2442.580,809.714 2449.875,808.933 2454.000 C 808.152 2458.125,804.023 2469.301,799.757 2478.836 C 795.491 2488.370,792.000 2498.241,792.000 2500.771 C 792.000 2507.399,777.072 2538.000,773.839 2538.000 C 772.341 2538.000,770.267 2541.375,769.232 2545.500 C 768.197 2549.625,766.396 2553.000,765.230 2553.000 C 764.065 2553.000,760.825 2557.794,758.032 2563.652 C 753.886 2572.346,753.621 2575.518,756.591 2580.902 C 760.603 2588.178,760.020 2598.479,755.435 2601.335 C 753.814 2602.345,752.743 2604.090,753.054 2605.214 C 754.058 2608.832,746.362 2625.000,743.636 2625.000 C 742.186 2625.000,741.000 2627.430,741.000 2630.400 C 741.000 2633.370,739.380 2637.420,737.400 2639.400 C 735.420 2641.380,734.780 2643.000,735.977 2643.000 C 737.174 2643.000,735.880 2647.388,733.101 2652.750 C 727.108 2664.315,722.714 2682.000,725.834 2682.000 C 728.578 2682.000,735.000 2668.238,735.000 2662.359 C 735.000 2659.961,736.430 2658.000,738.177 2658.000 C 739.924 2658.000,740.520 2656.650,739.500 2655.000 C 738.480 2653.350,739.155 2652.000,741.000 2652.000 C 742.845 2652.000,743.520 2650.650,742.500 2649.000 C 741.480 2647.350,741.884 2646.000,743.398 2646.000 C 746.616 2646.000,766.983 2616.065,771.058 2605.346 C 772.595 2601.306,775.235 2598.000,776.926 2598.000 C 778.617 2598.000,780.000 2595.300,780.000 2592.000 C 780.000 2588.700,781.350 2586.000,783.000 2586.000 C 787.731 2586.000,786.495 2577.002,781.500 2575.085 C 775.585 2572.815,775.715 2563.135,781.690 2560.842 C 784.270 2559.852,785.641 2557.847,784.738 2556.386 C 782.661 2553.024,791.494 2535.000,795.220 2535.000 C 796.749 2535.000,798.000 2532.507,798.000 2529.459 C 798.000 2526.411,800.672 2520.837,803.938 2517.072 C 807.203 2513.306,809.149 2509.050,808.261 2507.613 C 807.373 2506.176,808.076 2505.000,809.823 2505.000 C 811.570 2505.000,813.000 2502.930,813.000 2500.400 C 813.000 2493.753,827.562 2466.000,831.051 2466.000 C 832.673 2466.000,834.000 2463.879,834.000 2461.286 C 834.000 2458.693,836.025 2454.546,838.500 2452.071 C 840.975 2449.596,843.000 2444.968,843.000 2441.786 C 843.000 2438.604,844.136 2436.000,845.525 2436.000 C 846.914 2436.000,853.164 2424.525,859.413 2410.500 C 865.663 2396.475,871.860 2385.000,873.186 2385.000 C 875.740 2385.000,880.600 2373.056,879.594 2369.250 C 879.267 2368.013,880.430 2367.000,882.177 2367.000 C 883.924 2367.000,884.607 2365.791,883.694 2364.314 C 882.781 2362.837,883.981 2360.882,886.360 2359.969 C 888.739 2359.056,892.158 2352.839,893.958 2346.154 C 895.758 2339.470,898.313 2334.000,899.634 2334.000 C 903.171 2334.000,908.219 2321.483,907.656 2314.114 C 907.387 2310.601,904.627 2303.851,901.523 2299.114 C 898.419 2294.376,896.246 2289.976,896.696 2289.335 C 897.145 2288.695,896.216 2287.345,894.632 2286.335 C 888.586 2282.482,879.616 2261.314,880.750 2253.573 C 881.401 2249.133,883.036 2236.424,884.384 2225.332 C 885.733 2214.240,887.764 2204.236,888.899 2203.101 C 891.569 2200.431,903.000 2210.738,903.000 2215.816 C 903.000 2217.953,904.875 2220.781,907.167 2222.101 C 909.460 2223.420,914.070 2229.400,917.413 2235.388 C 922.653 2244.775,923.355 2250.565,922.501 2277.388 C 921.957 2294.500,921.237 2309.850,920.901 2311.500 C 919.176 2319.965,921.918 2324.656,930.750 2328.351 C 936.113 2330.595,941.175 2332.526,942.000 2332.643 C 959.997 2335.186,969.000 2338.227,969.000 2341.764 C 969.000 2344.094,970.224 2346.000,971.719 2346.000 C 973.215 2346.000,973.812 2343.604,973.046 2340.676 C 972.240 2337.594,966.358 2333.707,959.077 2331.444 C 952.160 2329.293,941.964 2325.389,936.419 2322.768 L 926.338 2318.002 928.315 2300.531 C 931.531 2272.097,935.025 2265.000,945.807 2265.000 C 950.878 2265.000,957.496 2267.234,960.514 2269.965 C 966.957 2275.796,967.657 2271.939,961.604 2263.950 C 959.291 2260.897,956.073 2259.219,954.451 2260.221 C 952.830 2261.223,947.878 2260.665,943.447 2258.980 C 937.756 2256.816,935.940 2254.483,937.263 2251.036 C 938.293 2248.351,936.783 2242.632,933.907 2238.327 C 923.244 2222.366,903.000 2183.624,903.000 2179.178 C 903.000 2177.965,900.963 2174.722,898.474 2171.972 C 893.570 2166.553,892.029 2128.144,895.465 2097.000 C 896.467 2087.925,897.843 2075.395,898.524 2069.156 C 899.204 2062.918,900.517 2056.590,901.441 2055.095 C 902.365 2053.600,904.510 2041.296,906.209 2027.753 C 907.907 2014.210,911.255 1999.342,913.648 1994.714 C 916.042 1990.085,918.000 1982.394,918.000 1977.622 C 918.000 1969.682,915.901 1967.974,893.250 1957.480 C 879.638 1951.174,868.103 1945.726,867.618 1945.375 C 867.133 1945.024,866.035 1940.870,865.178 1936.144 C 864.321 1931.419,860.199 1916.985,856.018 1904.068 C 851.837 1891.152,849.225 1879.775,850.214 1878.786 C 851.204 1877.796,850.137 1874.852,847.843 1872.243 C 845.550 1869.635,842.903 1860.956,841.961 1852.957 C 841.019 1844.958,838.869 1836.752,837.184 1834.721 C 835.498 1832.691,833.518 1827.760,832.783 1823.765 C 832.047 1819.769,831.177 1816.163,830.848 1815.750 C 830.519 1815.338,829.913 1813.650,829.500 1812.000 C 829.088 1810.350,828.478 1808.663,828.145 1808.250 C 825.131 1804.510,817.155 1754.986,819.068 1751.890 C 820.605 1749.402,824.644 1749.526,834.329 1752.357 C 841.573 1754.475,848.175 1756.949,849.000 1757.854 C 849.825 1758.759,854.550 1759.822,859.500 1760.215 C 874.088 1761.374,876.000 1761.870,876.000 1764.500 C 876.000 1765.875,877.013 1766.840,878.250 1766.645 C 886.218 1765.387,891.000 1767.694,891.000 1772.798 C 891.000 1775.987,893.701 1779.453,897.003 1780.501 C 900.305 1781.549,904.402 1785.015,906.109 1788.203 C 909.513 1794.564,919.237 1795.662,931.358 1791.054 C 937.679 1788.651,940.260 1789.260,945.360 1794.360 C 954.653 1803.653,983.274 1815.973,989.370 1813.304 C 993.071 1811.683,990.463 1810.250,980.007 1808.160 C 969.078 1805.975,962.640 1802.272,953.832 1793.105 C 942.436 1781.245,941.875 1781.032,930.924 1784.392 C 921.759 1787.205,918.442 1787.014,912.850 1783.350 C 905.188 1778.330,903.813 1773.000,910.179 1773.000 C 916.633 1773.000,918.440 1764.445,912.638 1761.353 C 909.812 1759.848,901.622 1757.037,894.438 1755.108 C 882.879 1752.004,881.537 1750.761,882.772 1744.300 C 883.698 1739.458,882.793 1737.000,880.084 1737.000 C 877.838 1737.000,876.000 1739.700,876.000 1743.000 C 876.000 1750.769,868.982 1750.742,845.655 1742.884 C 826.519 1736.437,814.099 1727.503,817.230 1722.437 C 818.257 1720.775,817.652 1718.521,815.886 1717.429 C 812.148 1715.119,818.844 1703.647,830.781 1691.909 C 852.022 1671.022,853.928 1662.795,847.437 1620.000 C 839.974 1570.797,847.453 1551.039,883.883 1523.712 C 897.698 1513.350,909.172 1504.113,909.383 1503.186 C 911.202 1495.173,912.218 1483.826,912.407 1469.386 L 912.632 1452.273 926.796 1459.679 C 934.586 1463.752,943.683 1469.622,947.012 1472.724 C 950.341 1475.825,957.325 1480.565,962.532 1483.258 C 971.025 1487.650,972.037 1489.613,972.355 1502.327 C 972.551 1510.122,972.604 1517.351,972.475 1518.392 C 972.345 1519.432,980.285 1523.217,990.119 1526.803 C 1001.315 1530.885,1008.000 1535.036,1008.000 1537.906 C 1008.000 1540.428,1003.275 1550.552,997.500 1560.406 C 991.725 1570.259,987.000 1579.523,987.000 1580.991 C 987.000 1582.459,991.002 1586.025,995.892 1588.914 C 1007.475 1595.756,1008.280 1600.651,1000.507 1617.000 C 996.057 1626.361,994.690 1633.259,996.051 1639.500 L 998.012 1648.500 999.256 1640.157 C 999.940 1635.568,1001.795 1632.193,1003.377 1632.657 C 1006.369 1633.534,1010.898 1619.059,1012.501 1603.500 C 1013.195 1596.763,1011.432 1592.818,1005.493 1587.812 L 997.557 1581.124 1005.029 1567.378 C 1009.138 1559.817,1014.863 1551.480,1017.750 1548.850 C 1022.565 1544.466,1023.497 1544.520,1029.000 1549.500 C 1032.300 1552.486,1035.000 1558.096,1035.000 1561.965 C 1035.000 1565.834,1036.350 1569.000,1038.000 1569.000 C 1044.032 1569.000,1040.523 1555.227,1031.930 1545.175 L 1023.103 1534.850 1029.369 1529.012 C 1034.443 1524.285,1035.282 1520.971,1033.782 1511.587 C 1032.763 1505.214,1032.510 1500.000,1033.220 1500.000 C 1033.930 1500.000,1040.010 1505.284,1046.731 1511.742 C 1059.809 1524.307,1066.771 1537.551,1061.885 1540.571 C 1060.298 1541.552,1059.000 1543.849,1059.000 1545.677 C 1059.000 1547.505,1059.888 1548.112,1060.974 1547.026 C 1062.060 1545.940,1064.760 1546.556,1066.974 1548.393 C 1070.066 1550.960,1071.000 1550.584,1071.000 1546.773 C 1071.000 1544.044,1072.852 1541.101,1075.116 1540.232 C 1077.380 1539.363,1083.283 1532.993,1088.233 1526.076 C 1095.206 1516.333,1096.666 1511.980,1094.715 1506.755 C 1092.730 1501.438,1093.605 1499.099,1098.848 1495.708 C 1108.472 1489.484,1120.999 1486.953,1123.350 1490.757 C 1124.452 1492.541,1128.987 1494.021,1133.427 1494.046 C 1147.236 1494.125,1150.967 1498.274,1146.905 1509.035 C 1143.889 1517.025,1144.107 1518.602,1148.447 1520.199 C 1151.226 1521.222,1157.550 1526.297,1162.500 1531.477 C 1167.450 1536.657,1169.813 1538.675,1167.750 1535.961 C 1165.688 1533.248,1164.000 1529.992,1164.000 1528.727 C 1164.000 1527.462,1161.181 1522.467,1157.736 1517.629 C 1152.644 1510.479,1152.025 1507.245,1154.426 1500.357 C 1157.209 1492.373,1156.702 1491.582,1145.690 1486.724 C 1139.261 1483.887,1134.000 1480.523,1134.000 1479.248 C 1134.000 1474.547,1144.924 1467.633,1160.215 1462.656 C 1177.542 1457.016,1178.055 1456.564,1180.136 1445.089 C 1182.266 1433.342,1184.040 1431.649,1192.519 1433.269 C 1203.169 1435.305,1206.130 1442.596,1204.581 1462.972 C 1203.541 1476.654,1204.427 1482.049,1208.621 1487.561 C 1213.189 1493.563,1213.585 1497.159,1211.265 1511.561 C 1209.764 1520.877,1209.422 1534.575,1210.506 1542.000 C 1211.590 1549.425,1213.152 1560.225,1213.978 1566.000 C 1216.090 1580.765,1217.456 1588.377,1218.152 1589.250 C 1218.481 1589.663,1218.939 1591.013,1219.171 1592.250 C 1219.402 1593.488,1220.362 1595.850,1221.304 1597.500 C 1222.245 1599.150,1222.811 1603.875,1222.561 1608.000 C 1222.312 1612.125,1221.858 1625.836,1221.554 1638.469 L 1221.000 1661.437 1205.250 1672.883 C 1196.588 1679.178,1188.825 1684.369,1188.000 1684.419 C 1187.175 1684.469,1182.447 1687.398,1177.494 1690.929 C 1170.018 1696.258,1165.395 1697.129,1150.280 1696.056 C 1133.123 1694.838,1131.870 1695.204,1128.600 1702.382 C 1126.691 1706.572,1123.412 1710.131,1121.314 1710.291 C 1100.146 1711.904,1074.000 1704.294,1074.000 1696.521 C 1074.000 1694.101,1068.453 1689.292,1061.674 1685.834 L 1049.348 1679.545 1057.174 1689.806 C 1067.654 1703.546,1067.177 1709.007,1055.250 1711.833 C 1049.888 1713.104,1044.617 1713.929,1043.538 1713.667 C 1042.458 1713.406,1039.769 1715.368,1037.561 1718.029 C 1033.993 1722.329,1034.377 1722.593,1041.024 1720.413 C 1055.553 1715.646,1069.607 1714.182,1078.500 1716.507 C 1089.749 1719.448,1121.765 1721.481,1128.651 1719.691 C 1131.483 1718.955,1134.612 1715.798,1135.603 1712.676 C 1136.955 1708.416,1140.257 1707.000,1148.835 1707.000 C 1163.349 1707.000,1167.077 1711.624,1165.938 1728.217 C 1165.437 1735.523,1167.387 1748.485,1170.273 1757.021 C 1174.818 1770.467,1174.930 1772.769,1171.111 1774.234 C 1160.769 1778.203,1149.615 1815.813,1147.888 1852.544 C 1147.590 1858.873,1145.777 1864.574,1143.858 1865.214 C 1134.146 1868.451,1112.857 1888.092,1111.176 1895.366 C 1105.152 1921.423,1092.081 1950.808,1082.869 1959.000 C 1081.942 1959.825,1077.204 1965.820,1072.341 1972.322 C 1061.496 1986.825,1050.568 1998.000,1047.231 1998.000 C 1045.858 1998.000,1043.054 2000.025,1041.000 2002.500 C 1037.941 2006.186,1038.146 2007.000,1042.133 2007.000 C 1049.427 2007.000,1048.689 2032.694,1041.033 2045.250 C 1037.763 2050.613,1036.438 2055.000,1038.088 2055.000 C 1043.486 2055.000,1052.977 2035.741,1052.989 2024.764 C 1053.000 2014.217,1068.408 1986.000,1074.156 1986.000 C 1075.581 1986.000,1080.307 1979.925,1084.659 1972.500 C 1089.010 1965.075,1093.454 1959.023,1094.535 1959.050 C 1095.616 1959.078,1101.394 1964.141,1107.375 1970.300 C 1117.315 1980.537,1118.256 1983.000,1118.327 1998.953 C 1118.370 2008.552,1119.214 2017.214,1120.203 2018.203 C 1121.191 2019.191,1122.000 2010.589,1122.000 1999.086 C 1122.000 1979.330,1121.413 1977.532,1111.397 1966.597 C 1098.864 1952.914,1099.016 1949.797,1113.841 1916.348 C 1123.817 1893.839,1130.656 1882.656,1133.008 1885.008 C 1133.642 1885.642,1139.463 1881.287,1145.944 1875.330 C 1156.677 1865.465,1157.719 1863.163,1157.642 1849.500 C 1157.491 1822.995,1168.109 1791.325,1182.127 1776.466 C 1188.674 1769.526,1188.700 1769.146,1184.056 1747.966 C 1174.599 1704.829,1174.444 1705.913,1191.970 1692.543 C 1213.802 1675.888,1218.718 1674.921,1227.641 1685.527 C 1237.077 1696.740,1243.157 1699.732,1261.337 1702.107 C 1278.400 1704.337,1281.078 1707.194,1278.869 1720.808 C 1277.702 1727.996,1278.982 1732.802,1283.637 1738.720 C 1287.137 1743.169,1290.000 1748.102,1290.000 1749.681 C 1290.000 1751.261,1292.700 1755.986,1296.000 1760.181 C 1299.300 1764.377,1302.000 1769.667,1302.000 1771.937 C 1302.000 1774.208,1304.869 1782.170,1308.376 1789.631 C 1314.626 1802.926,1314.641 1803.328,1309.126 1809.818 C 1306.032 1813.461,1301.158 1818.204,1298.295 1820.359 C 1292.888 1824.429,1292.012 1837.726,1296.736 1844.038 C 1298.192 1845.984,1299.864 1851.384,1300.450 1856.038 C 1301.330 1863.016,1299.456 1865.981,1289.759 1872.945 C 1283.291 1877.589,1278.000 1882.652,1278.000 1884.195 C 1278.000 1885.738,1276.139 1887.000,1273.864 1887.000 C 1268.467 1887.000,1261.469 1904.089,1262.569 1914.580 C 1263.147 1920.089,1260.888 1925.540,1255.715 1931.118 C 1251.472 1935.694,1248.000 1940.723,1248.000 1942.293 C 1248.000 1943.862,1249.929 1942.526,1252.286 1939.323 C 1256.415 1933.713,1256.650 1933.703,1258.721 1939.047 C 1260.494 1943.623,1261.656 1942.573,1265.366 1933.047 C 1267.839 1926.696,1269.700 1916.438,1269.500 1910.250 C 1269.301 1904.063,1270.240 1899.000,1271.587 1899.000 C 1272.934 1899.000,1281.941 1891.703,1291.601 1882.783 L 1309.164 1866.567 1305.709 1847.985 C 1302.762 1832.138,1302.948 1828.343,1306.972 1822.201 C 1313.044 1812.933,1316.902 1813.044,1317.375 1822.500 C 1318.309 1841.183,1319.299 1854.061,1319.855 1854.750 C 1321.159 1856.369,1323.441 1868.165,1325.049 1881.608 C 1326.474 1893.529,1325.412 1897.948,1318.197 1910.108 C 1307.789 1927.648,1307.729 1928.275,1315.372 1939.500 C 1318.742 1944.450,1321.900 1950.525,1322.388 1953.000 C 1323.434 1958.302,1330.736 1973.461,1335.553 1980.331 C 1338.195 1984.098,1337.413 1988.317,1332.005 1999.491 C 1326.428 2011.010,1325.748 2014.908,1328.536 2019.373 C 1332.659 2025.974,1330.060 2029.774,1304.250 2054.880 C 1290.419 2068.334,1287.000 2073.542,1287.000 2081.153 C 1287.000 2086.374,1288.231 2091.407,1289.736 2092.337 C 1291.271 2093.285,1290.066 2100.611,1286.995 2109.014 C 1281.255 2124.718,1283.118 2129.359,1290.000 2116.500 C 1296.063 2105.171,1304.600 2107.289,1302.095 2119.500 C 1301.757 2121.150,1302.361 2130.761,1303.437 2140.858 C 1305.131 2156.755,1306.431 2159.689,1313.129 2162.741 L 1320.864 2166.265 1315.856 2158.622 C 1312.395 2153.341,1310.797 2144.264,1310.684 2129.240 C 1310.539 2110.139,1309.653 2106.772,1303.384 2101.500 C 1299.461 2098.200,1295.352 2091.707,1294.255 2087.070 C 1292.526 2079.766,1293.963 2077.162,1305.019 2067.570 C 1312.037 2061.482,1322.505 2052.142,1328.282 2046.816 C 1334.059 2041.489,1339.959 2037.856,1341.393 2038.743 C 1345.479 2041.268,1344.449 2053.259,1339.595 2059.677 C 1333.496 2067.741,1333.926 2078.214,1340.501 2081.733 C 1343.526 2083.352,1352.237 2090.824,1359.859 2098.338 C 1367.481 2105.852,1374.547 2112.000,1375.563 2112.000 C 1378.575 2112.000,1366.092 2095.745,1354.236 2084.229 L 1343.217 2073.526 1349.608 2064.550 C 1358.015 2052.744,1357.671 2044.787,1347.954 2026.228 C 1340.064 2011.158,1340.007 2010.652,1345.005 2000.119 C 1349.780 1990.056,1349.785 1988.559,1345.086 1976.439 C 1342.327 1969.322,1338.480 1961.475,1336.538 1959.000 C 1331.126 1952.104,1323.000 1933.203,1323.000 1927.510 C 1323.000 1924.714,1325.770 1918.536,1329.156 1913.781 C 1334.069 1906.881,1335.033 1901.945,1333.933 1889.318 C 1333.174 1880.618,1332.336 1873.500,1332.070 1873.500 C 1330.349 1873.500,1327.750 1835.930,1328.491 1821.750 C 1329.436 1803.644,1340.376 1810.908,1343.175 1831.500 C 1343.847 1836.450,1346.987 1849.275,1350.150 1860.000 C 1353.314 1870.725,1356.380 1884.258,1356.963 1890.073 C 1358.925 1909.635,1365.176 1918.323,1378.526 1920.042 C 1385.112 1920.890,1396.847 1919.795,1404.605 1917.609 C 1415.357 1914.579,1420.231 1914.448,1425.109 1917.058 C 1433.773 1921.695,1439.816 1937.280,1438.751 1952.238 C 1437.749 1966.306,1438.419 1967.677,1449.846 1974.951 C 1454.436 1977.873,1457.379 1981.578,1456.386 1983.184 C 1453.370 1988.065,1454.506 2028.706,1457.750 2031.950 C 1459.793 2033.993,1460.209 2031.451,1459.025 2024.154 C 1458.059 2018.199,1458.215 2005.749,1459.372 1996.487 C 1461.356 1980.610,1461.916 1979.700,1469.185 1980.574 C 1473.426 1981.083,1478.333 1984.200,1480.090 1987.500 C 1481.848 1990.800,1486.784 1998.900,1491.061 2005.500 C 1496.398 2013.738,1498.733 2021.262,1498.508 2029.500 C 1498.328 2036.100,1499.801 2043.146,1501.783 2045.157 C 1504.596 2048.012,1505.165 2046.697,1504.380 2039.157 C 1501.369 2010.250,1500.302 2006.785,1485.248 1977.000 C 1483.997 1974.525,1474.720 1969.800,1464.632 1966.500 L 1446.289 1960.500 1446.895 1940.669 C 1447.469 1921.867,1446.999 1920.369,1437.855 1911.813 C 1432.551 1906.850,1427.449 1903.551,1426.518 1904.482 C 1424.158 1906.842,1417.199 1908.014,1397.461 1909.374 C 1377.305 1910.764,1367.112 1908.642,1369.096 1903.471 C 1369.885 1901.414,1369.393 1898.554,1368.002 1897.116 C 1366.610 1895.677,1364.790 1888.119,1363.956 1880.320 C 1363.123 1872.521,1361.811 1865.096,1361.042 1863.820 C 1360.273 1862.544,1358.746 1854.789,1357.648 1846.586 C 1354.706 1824.607,1348.071 1813.040,1333.931 1805.241 C 1327.094 1801.469,1321.331 1796.722,1321.125 1794.691 C 1320.919 1792.661,1320.481 1790.663,1320.152 1790.250 C 1319.823 1789.838,1319.000 1786.540,1318.322 1782.921 C 1317.644 1779.303,1314.142 1771.203,1310.538 1764.921 C 1293.378 1735.006,1290.049 1726.430,1291.545 1716.000 C 1292.373 1710.225,1293.891 1694.582,1294.918 1681.237 L 1296.785 1656.974 1285.892 1650.243 C 1279.902 1646.540,1274.994 1642.608,1274.987 1641.505 C 1274.980 1640.402,1267.031 1630.981,1257.323 1620.570 C 1245.102 1607.462,1237.700 1596.230,1233.259 1584.051 C 1229.732 1574.377,1227.112 1565.345,1227.437 1563.981 C 1227.762 1562.616,1226.961 1555.040,1225.657 1547.145 C 1223.748 1535.579,1224.522 1529.818,1229.644 1517.495 C 1237.751 1497.986,1237.870 1486.212,1230.000 1482.000 C 1222.663 1478.073,1221.325 1455.838,1228.266 1453.175 C 1237.583 1449.599,1261.674 1469.133,1264.648 1482.675 C 1265.660 1487.281,1268.740 1492.250,1271.494 1493.717 C 1275.542 1495.874,1297.945 1495.891,1309.947 1493.746 C 1320.185 1491.916,1332.748 1495.404,1345.851 1503.713 C 1362.338 1514.169,1383.564 1540.486,1386.000 1553.492 C 1387.138 1559.567,1391.481 1563.516,1403.995 1569.853 C 1423.754 1579.857,1427.386 1583.197,1429.184 1593.014 C 1429.937 1597.131,1430.758 1600.500,1431.007 1600.500 C 1431.255 1600.500,1431.876 1602.624,1432.386 1605.220 C 1435.542 1621.281,1449.676 1662.000,1452.096 1662.000 C 1453.693 1662.000,1456.013 1662.055,1457.250 1662.122 C 1460.804 1662.315,1466.910 1682.577,1468.913 1700.822 C 1470.521 1715.468,1472.252 1718.885,1483.122 1728.863 C 1498.780 1743.238,1520.705 1758.000,1526.396 1758.000 C 1529.838 1758.000,1530.453 1761.227,1529.300 1773.227 C 1527.846 1788.361,1527.912 1788.500,1540.169 1796.130 C 1546.951 1800.353,1552.989 1804.227,1553.586 1804.740 C 1554.183 1805.252,1555.109 1810.133,1555.644 1815.586 C 1556.179 1821.039,1556.803 1825.500,1557.031 1825.500 C 1557.259 1825.500,1557.966 1828.200,1558.602 1831.500 C 1559.237 1834.800,1561.101 1842.900,1562.743 1849.500 C 1565.344 1859.952,1565.536 1858.854,1564.230 1840.990 C 1563.218 1827.145,1563.749 1821.109,1565.865 1822.417 C 1567.589 1823.482,1569.030 1825.962,1569.067 1827.927 C 1569.130 1831.334,1580.797 1848.123,1580.931 1845.000 C 1581.201 1838.689,1568.829 1813.945,1563.556 1810.252 C 1559.889 1807.683,1557.000 1802.464,1557.000 1798.407 C 1557.000 1793.382,1554.235 1789.724,1548.000 1786.500 C 1540.620 1782.684,1539.000 1779.970,1539.000 1771.423 C 1539.000 1765.690,1540.013 1760.846,1541.250 1760.658 C 1561.446 1757.588,1575.000 1762.007,1575.000 1771.663 C 1575.000 1774.152,1577.075 1776.985,1579.612 1777.958 C 1582.148 1778.931,1586.216 1784.496,1588.651 1790.324 C 1591.086 1796.153,1593.815 1800.185,1594.715 1799.285 C 1600.755 1793.245,1561.191 1743.056,1553.928 1747.545 C 1548.218 1751.074,1540.307 1743.403,1539.561 1733.614 C 1538.637 1721.481,1536.329 1719.976,1514.828 1717.480 C 1492.319 1714.868,1479.860 1707.164,1477.489 1694.393 C 1476.478 1688.952,1475.158 1681.800,1474.555 1678.500 C 1473.952 1675.200,1473.356 1670.202,1473.230 1667.394 C 1473.103 1664.586,1468.048 1657.479,1461.995 1651.601 C 1455.943 1645.723,1450.655 1637.896,1450.245 1634.207 C 1449.835 1630.518,1449.284 1627.500,1449.020 1627.500 C 1448.757 1627.500,1448.095 1625.475,1447.550 1623.000 C 1447.005 1620.525,1445.037 1611.908,1443.178 1603.852 C 1441.318 1595.795,1440.358 1588.642,1441.044 1587.956 C 1444.430 1584.570,1458.791 1591.684,1464.361 1599.506 C 1472.952 1611.572,1474.229 1608.670,1466.954 1593.613 C 1460.582 1580.424,1453.547 1575.000,1442.815 1575.000 C 1431.060 1575.000,1397.623 1556.532,1394.254 1548.178 C 1384.453 1523.879,1380.997 1518.307,1368.384 1506.473 C 1345.517 1485.018,1337.411 1482.123,1305.750 1484.101 L 1278.482 1485.805 1274.781 1473.451 C 1272.745 1466.656,1268.529 1458.789,1265.412 1455.968 C 1259.301 1450.437,1240.641 1443.119,1232.464 1443.045 C 1229.695 1443.020,1225.637 1441.313,1223.448 1439.250 C 1221.258 1437.188,1210.582 1429.486,1199.723 1422.135 C 1188.864 1414.785,1176.046 1403.310,1171.239 1396.635 C 1162.149 1384.013,1160.996 1374.731,1163.875 1337.371 C 1164.797 1325.401,1163.880 1322.365,1157.872 1317.500 L 1150.781 1311.758 1160.160 1302.379 C 1171.092 1291.446,1175.742 1290.752,1182.804 1299.000 C 1185.629 1302.300,1191.520 1305.000,1195.894 1305.000 C 1201.373 1305.000,1207.920 1309.191,1216.945 1318.478 C 1229.811 1331.715,1233.577 1332.869,1246.230 1327.446 C 1250.586 1325.578,1253.504 1326.927,1258.403 1333.071 C 1266.164 1342.804,1270.663 1340.327,1263.919 1330.034 C 1257.060 1319.566,1248.699 1315.685,1243.070 1320.357 C 1239.236 1323.539,1236.033 1321.411,1222.622 1306.769 C 1212.844 1296.094,1205.924 1290.696,1204.653 1292.752 C 1203.206 1295.093,1199.727 1294.508,1193.044 1290.798 C 1179.814 1283.454,1179.065 1281.806,1179.958 1262.020 C 1180.792 1243.531,1177.753 1239.000,1164.518 1239.000 C 1161.286 1239.000,1157.881 1237.017,1156.951 1234.594 C 1154.307 1227.703,1158.453 1200.026,1162.168 1199.770 C 1164.001 1199.644,1168.200 1198.863,1171.500 1198.033 C 1174.800 1197.204,1181.550 1195.844,1186.500 1195.011 C 1191.450 1194.178,1199.834 1191.546,1205.131 1189.164 C 1214.083 1185.137,1215.298 1185.298,1222.381 1191.457 C 1226.571 1195.101,1230.000 1199.719,1230.000 1201.720 C 1230.000 1206.417,1236.934 1209.000,1249.545 1209.000 C 1257.791 1209.000,1261.547 1211.379,1270.443 1222.234 C 1283.413 1238.062,1286.013 1239.267,1300.268 1236.052 C 1310.817 1233.673,1311.337 1233.937,1313.059 1242.545 C 1314.107 1247.786,1317.653 1252.793,1321.586 1254.585 C 1325.289 1256.272,1329.670 1261.894,1331.320 1267.076 L 1334.321 1276.500 1334.164 1264.959 C 1334.038 1255.798,1332.534 1252.748,1326.866 1250.165 C 1322.100 1247.994,1320.020 1244.849,1320.613 1240.707 C 1321.368 1235.427,1323.255 1234.655,1333.279 1235.526 C 1339.758 1236.090,1348.382 1237.815,1352.445 1239.359 C 1356.508 1240.904,1360.436 1241.564,1361.173 1240.827 C 1365.870 1236.130,1319.870 1223.844,1296.757 1223.622 C 1285.188 1223.511,1283.140 1222.283,1274.528 1210.291 C 1265.636 1197.909,1264.357 1197.192,1254.106 1198.831 C 1244.122 1200.428,1242.538 1199.656,1235.890 1189.955 C 1223.581 1171.991,1218.510 1171.482,1179.000 1184.250 C 1176.525 1185.050,1168.855 1186.253,1161.956 1186.922 C 1151.881 1187.900,1148.043 1186.782,1142.456 1181.242 C 1138.630 1177.448,1125.721 1169.654,1113.768 1163.922 C 1093.317 1154.114,1092.137 1153.014,1093.756 1145.250 C 1096.696 1131.151,1092.677 1120.571,1082.993 1116.915 C 1076.701 1114.541,1072.006 1109.014,1066.536 1097.546 C 1062.326 1088.721,1057.357 1079.343,1055.493 1076.706 C 1052.900 1073.036,1053.266 1069.587,1057.053 1061.995 C 1062.300 1051.476,1063.475 1040.475,1059.750 1036.750 C 1058.513 1035.513,1057.500 1033.543,1057.500 1032.374 C 1057.500 1031.204,1052.438 1025.034,1046.250 1018.663 C 1034.904 1006.981,1032.451 1002.000,1038.044 1002.000 C 1042.046 1002.000,1052.974 983.946,1052.989 977.311 C 1052.995 974.326,1048.206 969.676,1041.711 966.363 C 1030.068 960.423,1016.287 948.137,1009.148 937.332 C 1003.622 928.969,1000.913 886.696,1005.354 878.132 C 1007.246 874.484,1013.486 865.694,1019.222 858.597 C 1028.858 846.676,1029.605 844.280,1029.041 827.097 C 1028.443 808.931,1026.933 790.500,1026.041 790.500 C 1025.796 790.500,1025.030 786.181,1024.339 780.901 C 1022.728 768.582,1026.419 766.508,1038.662 772.854 C 1044.073 775.659,1055.145 780.299,1063.267 783.165 C 1077.495 788.186,1078.303 789.103,1085.382 808.253 C 1091.358 824.420,1093.501 827.489,1096.865 824.697 C 1099.139 822.810,1101.000 822.271,1101.000 823.500 C 1101.000 824.729,1102.887 824.169,1105.193 822.254 C 1108.504 819.507,1110.591 820.305,1115.108 826.047 C 1119.560 831.708,1125.117 833.895,1140.165 835.910 L 1159.500 838.500 1160.422 851.250 L 1161.345 864.000 1184.422 864.475 C 1197.115 864.737,1209.696 864.782,1212.381 864.576 C 1215.533 864.334,1219.028 868.826,1222.248 877.258 C 1227.195 890.212,1227.322 890.296,1238.202 887.842 C 1244.234 886.481,1250.163 885.982,1251.377 886.733 C 1252.592 887.484,1254.370 886.829,1255.328 885.278 C 1258.204 880.625,1276.829 883.900,1290.355 891.436 C 1299.237 896.386,1304.051 901.559,1306.439 908.721 C 1308.365 914.495,1312.708 919.999,1316.424 921.374 C 1320.907 923.032,1323.000 926.316,1323.000 931.690 C 1323.000 936.026,1325.552 943.157,1328.670 947.537 C 1331.789 951.917,1334.376 956.625,1334.420 958.000 C 1334.464 959.375,1335.419 961.400,1336.542 962.500 C 1339.458 965.357,1337.245 947.217,1334.155 942.942 C 1332.677 940.896,1332.967 936.799,1334.837 933.305 C 1339.352 924.869,1350.190 929.114,1355.794 941.513 C 1358.156 946.738,1362.027 950.673,1364.396 950.257 C 1366.766 949.840,1370.233 952.049,1372.102 955.164 C 1378.925 966.538,1387.811 974.423,1399.143 979.157 C 1405.517 981.821,1411.497 984.000,1412.432 984.000 C 1414.867 984.000,1403.853 974.319,1394.866 968.560 C 1390.667 965.870,1383.917 958.802,1379.866 952.855 C 1375.815 946.907,1370.813 942.032,1368.750 942.020 C 1366.688 942.009,1364.831 938.625,1364.625 934.500 C 1364.068 923.358,1363.709 921.709,1361.318 919.318 C 1359.449 917.449,1344.953 915.784,1325.176 915.166 C 1319.830 914.999,1313.876 903.761,1313.166 892.500 C 1312.705 885.182,1308.710 882.107,1299.585 882.046 C 1295.782 882.021,1286.909 879.375,1279.868 876.168 C 1268.021 870.771,1266.094 870.669,1254.071 874.812 C 1238.150 880.297,1234.361 879.056,1232.071 867.605 L 1230.289 858.695 1201.290 858.493 C 1185.341 858.382,1171.807 857.807,1171.214 857.214 C 1170.621 856.621,1169.729 853.518,1169.231 850.318 C 1168.734 847.118,1167.273 842.813,1165.986 840.750 C 1164.699 838.688,1164.738 836.905,1166.073 836.789 C 1173.632 836.132,1154.392 831.388,1143.454 831.211 C 1132.968 831.041,1128.752 829.228,1121.974 821.972 C 1114.498 813.969,1112.601 813.300,1105.281 816.083 C 1096.302 819.497,1092.792 817.613,1091.037 808.436 C 1090.412 805.171,1088.920 800.243,1087.720 797.484 C 1086.520 794.726,1085.245 790.474,1084.887 788.037 C 1083.852 780.981,1076.757 774.000,1070.622 774.000 C 1052.572 774.000,1016.900 740.686,1011.350 718.648 C 1009.365 710.764,1005.485 703.865,1001.981 701.990 C 998.691 700.229,996.000 697.343,996.000 695.576 C 996.000 693.809,991.990 687.301,987.090 681.114 C 982.189 674.926,976.767 666.632,975.040 662.682 C 973.313 658.732,968.558 649.571,964.475 642.325 C 956.486 628.151,956.463 628.968,966.166 582.000 C 971.110 558.066,971.756 549.203,968.694 547.311 C 967.204 546.390,963.204 539.534,959.807 532.076 C 952.524 516.090,953.707 507.371,966.457 483.043 C 983.677 450.188,982.784 427.093,962.542 381.750 C 955.351 365.643,952.331 351.000,956.199 351.000 C 957.820 351.000,964.125 342.936,970.208 333.080 C 976.292 323.223,982.942 313.436,984.986 311.330 C 990.271 305.884,1003.813 281.860,1006.513 273.140 C 1007.766 269.092,1010.638 263.933,1012.896 261.676 C 1015.153 259.418,1017.000 254.293,1017.000 250.286 C 1017.000 243.189,1016.388 243.000,993.408 243.000 L 969.816 243.000 962.261 254.250 M751.978 801.349 C 749.194 805.599,741.872 810.748,735.708 812.792 C 728.763 815.095,719.365 822.383,711.000 831.954 L 697.500 847.400 712.500 835.552 C 720.750 829.035,728.337 822.512,729.359 821.057 C 730.382 819.601,733.757 818.908,736.859 819.518 C 741.417 820.414,742.351 822.918,741.724 832.563 L 740.947 844.500 745.846 834.756 C 749.741 827.007,749.995 824.109,747.088 820.606 C 744.103 817.010,744.940 814.904,751.645 809.137 C 756.162 805.251,759.224 800.171,758.449 797.847 C 757.442 794.826,755.599 795.823,751.978 801.349 M928.193 812.502 C 929.043 813.879,930.532 819.503,931.500 825.000 C 932.468 830.497,934.024 836.229,934.956 837.737 C 935.888 839.246,933.804 842.473,930.325 844.910 C 926.846 847.347,924.000 851.289,924.000 853.670 C 924.000 858.255,919.483 859.279,903.920 858.221 C 897.832 857.807,890.947 860.077,885.036 864.448 C 878.876 869.002,872.445 871.043,866.006 870.489 C 858.296 869.824,854.002 871.863,845.289 880.325 C 829.675 895.489,824.990 894.681,828.922 877.500 C 830.889 868.904,833.639 864.000,836.492 864.000 C 838.956 864.000,848.231 861.712,857.103 858.915 C 869.286 855.075,874.736 851.400,879.373 843.897 C 882.750 838.433,886.747 834.726,888.256 835.658 C 891.030 837.373,892.075 833.507,891.228 824.667 C 890.902 821.277,895.501 818.438,906.632 815.159 C 926.065 809.434,926.280 809.407,928.193 812.502 M772.271 893.759 C 765.721 898.577,755.667 903.086,749.930 903.779 C 740.148 904.962,740.300 905.070,752.393 905.520 C 762.549 905.898,766.713 904.461,772.004 898.751 C 775.699 894.765,783.397 890.161,789.111 888.522 C 798.116 885.938,798.480 885.505,791.841 885.271 C 787.629 885.122,778.822 888.942,772.271 893.759 M1020.149 973.577 C 1030.000 978.671,1032.134 989.665,1024.500 996.000 C 1016.819 1002.375,1019.415 1009.277,1036.331 1027.454 C 1052.654 1044.992,1052.660 1045.007,1048.459 1055.061 C 1046.147 1060.594,1042.250 1067.984,1039.799 1071.484 C 1035.724 1077.301,1036.002 1078.714,1043.027 1087.924 C 1047.254 1093.466,1049.577 1098.000,1048.189 1098.000 C 1046.801 1098.000,1048.688 1100.117,1052.383 1102.705 C 1062.632 1109.884,1057.651 1112.911,1037.657 1111.654 L 1019.541 1110.515 1011.678 1123.534 C 1005.497 1133.767,1001.155 1137.297,991.385 1140.032 C 984.549 1141.946,975.029 1146.747,970.228 1150.702 L 961.500 1157.891 976.500 1150.458 C 984.750 1146.370,994.446 1143.019,998.046 1143.013 C 1004.390 1143.000,1017.000 1129.212,1017.000 1122.287 C 1017.000 1118.800,1021.883 1117.974,1036.500 1118.989 C 1081.373 1122.103,1081.386 1122.112,1080.143 1149.320 L 1079.512 1163.140 1106.006 1176.877 C 1143.391 1196.260,1142.675 1195.497,1144.591 1218.000 C 1146.168 1236.513,1150.527 1244.742,1160.756 1248.513 C 1164.542 1249.909,1165.363 1262.481,1162.561 1276.175 C 1160.945 1284.074,1155.940 1292.022,1147.086 1300.751 C 1139.889 1307.847,1134.000 1314.586,1134.000 1315.727 C 1134.000 1316.868,1137.713 1320.998,1142.250 1324.903 C 1149.819 1331.419,1150.466 1333.659,1150.090 1352.044 C 1149.773 1367.578,1148.464 1372.973,1144.267 1376.041 C 1141.289 1378.219,1139.972 1380.000,1141.339 1380.000 C 1142.706 1380.000,1139.244 1383.713,1133.644 1388.250 C 1128.044 1392.788,1119.820 1400.213,1115.368 1404.750 C 1110.915 1409.288,1105.352 1413.000,1103.004 1413.000 C 1100.656 1413.000,1097.066 1415.010,1095.027 1417.467 C 1092.988 1419.924,1090.249 1421.272,1088.940 1420.463 C 1087.631 1419.654,1087.236 1421.578,1088.062 1424.739 C 1089.034 1428.453,1087.467 1431.609,1083.636 1433.660 C 1080.374 1435.405,1076.890 1438.960,1075.892 1441.559 C 1074.311 1445.679,1074.829 1445.760,1079.929 1442.187 C 1083.147 1439.934,1088.627 1434.469,1092.107 1430.045 C 1096.293 1424.724,1101.293 1422.000,1106.877 1422.000 C 1114.067 1422.000,1115.526 1423.413,1116.717 1431.525 C 1117.821 1439.049,1116.475 1442.494,1110.307 1447.930 C 1106.013 1451.714,1103.864 1454.853,1105.531 1454.905 C 1111.868 1455.103,1125.442 1439.468,1123.296 1434.441 C 1117.663 1421.239,1126.123 1401.624,1140.122 1395.427 C 1148.223 1391.841,1149.291 1392.293,1160.832 1404.185 C 1172.025 1415.719,1176.876 1428.000,1170.238 1428.000 C 1168.719 1428.000,1166.609 1431.951,1165.548 1436.779 C 1163.979 1443.924,1152.760 1455.320,1146.000 1456.636 C 1140.644 1457.679,1126.095 1466.017,1124.101 1469.187 C 1122.781 1471.284,1119.953 1473.000,1117.816 1473.000 C 1115.679 1473.000,1111.556 1475.623,1108.654 1478.830 C 1105.752 1482.036,1099.381 1485.538,1094.497 1486.611 C 1083.722 1488.977,1077.126 1500.709,1082.097 1508.668 C 1084.211 1512.053,1084.363 1515.670,1082.530 1518.946 C 1080.975 1521.726,1080.444 1524.000,1081.351 1524.000 C 1082.258 1524.000,1080.047 1526.953,1076.438 1530.563 C 1072.134 1534.866,1069.460 1535.881,1068.670 1533.511 C 1068.008 1531.523,1062.939 1523.316,1057.407 1515.274 C 1051.875 1507.231,1048.061 1499.939,1048.931 1499.069 C 1052.683 1495.317,1036.225 1490.685,1013.275 1489.032 C 993.511 1487.609,985.315 1485.459,972.750 1478.404 C 964.088 1473.540,957.000 1468.336,957.000 1466.841 C 957.000 1465.345,951.938 1461.492,945.750 1458.278 C 926.019 1448.029,893.805 1408.486,896.324 1397.607 C 896.565 1396.566,894.115 1393.319,890.881 1390.392 C 887.646 1387.465,885.000 1382.500,885.000 1379.358 C 885.000 1376.216,883.650 1374.480,882.000 1375.500 C 877.974 1377.988,878.166 1373.034,882.253 1368.947 C 884.590 1366.610,883.710 1364.437,879.126 1361.226 C 875.618 1358.769,873.081 1355.575,873.489 1354.129 C 874.644 1350.031,866.699 1328.026,862.192 1322.843 C 859.965 1320.282,857.642 1315.557,857.030 1312.343 C 856.418 1309.129,854.361 1302.700,852.459 1298.055 C 850.556 1293.410,849.000 1287.703,849.000 1285.373 C 849.000 1283.043,845.625 1272.170,841.500 1261.211 C 833.543 1240.072,832.638 1235.785,836.250 1236.355 C 837.488 1236.551,839.513 1236.382,840.750 1235.980 C 841.988 1235.579,844.191 1235.081,845.646 1234.875 C 847.102 1234.669,855.740 1227.075,864.843 1218.000 C 873.945 1208.925,885.626 1197.869,890.799 1193.431 C 898.200 1187.081,899.811 1183.793,898.358 1178.002 C 896.733 1171.528,899.429 1168.420,920.755 1152.186 C 934.090 1142.036,944.992 1132.779,944.982 1131.615 C 944.971 1130.452,943.029 1125.793,940.666 1121.262 C 936.550 1113.373,936.785 1112.707,946.217 1105.512 C 951.634 1101.380,957.626 1098.000,959.533 1098.000 C 964.263 1098.000,975.000 1086.920,975.000 1082.040 C 975.000 1079.863,970.992 1073.591,966.093 1068.104 C 961.194 1062.617,957.847 1057.056,958.656 1055.748 C 959.465 1054.439,957.946 1052.149,955.282 1050.658 C 951.117 1048.327,951.948 1046.303,961.205 1036.224 C 967.126 1029.776,971.978 1023.637,971.986 1022.581 C 971.994 1021.526,976.646 1015.451,982.325 1009.081 C 988.004 1002.712,995.660 991.088,999.338 983.250 C 1003.016 975.413,1007.212 969.000,1008.662 969.000 C 1010.112 969.000,1015.281 971.060,1020.149 973.577 M900.237 988.750 C 900.381 992.245,901.092 992.956,902.049 990.563 C 902.916 988.397,902.809 985.809,901.813 984.813 C 900.816 983.816,900.107 985.588,900.237 988.750 M840.000 1000.106 C 840.000 1002.788,876.632 1023.368,878.349 1021.651 C 879.228 1020.772,881.792 1021.583,884.046 1023.454 C 886.301 1025.324,888.868 1026.132,889.753 1025.247 C 891.045 1023.955,875.795 1015.715,842.250 999.582 C 841.013 998.987,840.000 999.223,840.000 1000.106 M589.500 1029.000 C 583.715 1031.486,583.736 1031.586,590.073 1031.789 C 593.688 1031.905,597.480 1030.650,598.500 1029.000 C 600.693 1025.452,597.757 1025.452,589.500 1029.000 M700.500 1119.000 C 699.480 1120.650,699.996 1122.000,701.646 1122.000 C 703.296 1122.000,705.480 1120.650,706.500 1119.000 C 707.520 1117.350,707.004 1116.000,705.354 1116.000 C 703.704 1116.000,701.520 1117.350,700.500 1119.000 M654.000 1284.000 C 656.475 1285.599,661.875 1286.794,666.000 1286.655 L 673.500 1286.402 666.000 1284.000 C 661.875 1282.679,656.475 1281.484,654.000 1281.345 C 650.000 1281.120,650.000 1281.415,654.000 1284.000 M811.155 1357.394 C 813.820 1361.461,816.000 1367.579,816.000 1370.989 C 816.000 1374.398,817.974 1377.946,820.386 1378.871 C 822.798 1379.797,825.586 1383.122,826.582 1386.259 C 827.578 1389.397,829.992 1393.660,831.947 1395.732 C 836.492 1400.552,846.000 1421.031,846.000 1426.002 C 846.000 1428.091,847.567 1431.367,849.483 1433.283 C 851.399 1435.199,853.321 1440.089,853.754 1444.150 C 854.503 1451.176,850.902 1454.595,840.516 1456.722 C 830.806 1458.710,827.455 1461.572,823.360 1471.372 C 820.009 1479.393,815.164 1483.639,802.556 1489.604 C 793.516 1493.880,785.325 1498.666,784.353 1500.238 C 783.381 1501.811,781.422 1502.379,780.000 1501.500 C 778.578 1500.621,776.567 1501.274,775.530 1502.951 C 774.494 1504.628,772.470 1506.000,771.032 1506.000 C 767.846 1506.000,770.785 1495.511,780.896 1470.788 C 785.245 1460.154,787.332 1451.323,785.729 1450.333 C 782.675 1448.445,774.890 1431.092,772.088 1419.925 C 770.831 1414.920,771.640 1413.000,775.005 1413.000 C 777.565 1413.000,782.964 1407.460,787.002 1400.688 C 793.235 1390.235,793.908 1386.795,791.453 1377.907 C 789.863 1372.149,789.324 1366.676,790.255 1365.745 C 791.186 1364.814,790.456 1362.254,788.632 1360.056 C 786.074 1356.974,786.937 1355.410,792.408 1353.220 C 803.339 1348.843,805.930 1349.420,811.155 1357.394 M1075.521 1424.966 C 1074.470 1426.666,1075.674 1427.169,1078.344 1426.145 C 1083.541 1424.150,1084.492 1422.000,1080.177 1422.000 C 1078.624 1422.000,1076.529 1423.335,1075.521 1424.966 M238.500 1465.099 C 228.346 1468.177,227.414 1469.090,232.443 1471.040 C 235.973 1472.408,238.815 1472.056,239.443 1470.172 C 240.024 1468.427,243.088 1467.000,246.250 1467.000 C 249.413 1467.000,252.000 1465.650,252.000 1464.000 C 252.000 1462.350,251.663 1461.104,251.250 1461.231 C 250.838 1461.357,245.100 1463.098,238.500 1465.099 M1023.988 1508.470 C 1026.646 1514.304,1026.584 1516.305,1023.715 1517.262 C 1021.672 1517.943,1020.000 1520.975,1020.000 1524.000 C 1020.000 1532.058,1013.954 1532.897,1001.370 1526.584 C 995.248 1523.513,988.271 1521.000,985.866 1521.000 C 982.548 1521.000,981.759 1517.923,982.596 1508.250 C 983.202 1501.238,983.766 1495.394,983.849 1495.265 C 983.932 1495.136,992.223 1496.354,1002.273 1497.973 C 1017.433 1500.414,1021.132 1502.202,1023.988 1508.470 M1251.000 1629.444 C 1258.425 1637.907,1268.844 1649.031,1274.153 1654.165 C 1283.765 1663.460,1285.036 1668.776,1281.943 1686.750 C 1280.214 1696.800,1278.189 1696.882,1255.914 1687.808 C 1240.919 1681.700,1237.514 1678.828,1232.810 1668.322 C 1229.776 1661.545,1228.250 1656.000,1229.418 1656.000 C 1230.587 1656.000,1231.058 1649.893,1230.464 1642.430 C 1229.313 1627.959,1231.697 1613.981,1235.307 1614.029 C 1236.513 1614.046,1243.575 1620.982,1251.000 1629.444 M1516.487 1727.095 C 1521.429 1728.167,1526.942 1730.513,1528.737 1732.308 C 1532.516 1736.087,1533.142 1746.000,1529.602 1746.000 C 1525.596 1746.000,1504.842 1736.020,1499.250 1731.404 C 1491.901 1725.337,1492.708 1720.932,1500.750 1723.222 C 1504.463 1724.279,1511.544 1726.022,1516.487 1727.095 M891.514 1734.292 C 885.825 1743.401,889.247 1744.622,895.163 1735.594 C 897.899 1731.417,899.082 1728.000,897.791 1728.000 C 896.500 1728.000,893.675 1730.831,891.514 1734.292 M531.750 1806.740 C 526.388 1808.460,522.000 1810.941,522.000 1812.252 C 522.000 1813.563,528.075 1812.566,535.500 1810.036 C 555.710 1803.150,552.296 1800.149,531.750 1806.740 M498.750 1817.431 C 491.211 1821.028,489.000 1823.970,489.000 1830.404 C 489.000 1836.777,485.739 1841.215,475.069 1849.363 C 467.406 1855.213,463.191 1860.000,465.701 1860.000 C 468.211 1860.000,471.946 1857.975,474.000 1855.500 C 476.054 1853.025,479.294 1851.000,481.201 1851.000 C 486.891 1851.000,495.000 1839.477,495.000 1831.391 C 495.000 1824.684,503.423 1818.018,513.500 1816.751 C 514.600 1816.613,516.513 1815.488,517.750 1814.250 C 521.573 1810.427,509.029 1812.528,498.750 1817.431 M742.662 1826.739 C 741.553 1828.532,737.621 1830.000,733.923 1830.000 C 730.225 1830.000,725.880 1831.320,724.266 1832.934 C 722.653 1834.547,713.589 1838.422,704.126 1841.544 L 686.919 1847.221 685.099 1839.971 C 684.098 1835.983,683.842 1832.158,684.531 1831.469 C 685.219 1830.781,697.868 1827.742,712.641 1824.715 C 738.640 1819.387,746.862 1819.941,742.662 1826.739 M562.500 1839.000 C 561.480 1840.650,561.996 1842.000,563.646 1842.000 C 565.296 1842.000,567.480 1840.650,568.500 1839.000 C 569.520 1837.350,569.004 1836.000,567.354 1836.000 C 565.704 1836.000,563.520 1837.350,562.500 1839.000 M552.000 1845.000 C 552.000 1846.650,550.055 1848.000,547.677 1848.000 C 545.299 1848.000,542.598 1849.224,541.673 1850.720 C 539.042 1854.977,551.390 1850.850,555.269 1846.176 C 557.783 1843.147,557.810 1842.000,555.367 1842.000 C 553.515 1842.000,552.000 1843.350,552.000 1845.000 M676.811 1858.229 C 677.704 1860.555,676.397 1866.398,673.907 1871.212 C 669.103 1880.503,646.835 1890.000,629.854 1890.000 C 622.289 1890.000,621.553 1889.140,622.876 1881.843 C 624.833 1871.054,629.326 1866.022,637.117 1865.898 C 640.628 1865.842,648.900 1863.188,655.500 1860.000 C 669.944 1853.023,674.663 1852.631,676.811 1858.229 M396.750 2034.093 C 393.038 2035.586,390.000 2037.399,390.000 2038.122 C 390.000 2040.355,401.994 2036.436,403.724 2033.638 C 405.632 2030.551,405.551 2030.556,396.750 2034.093 M668.438 2094.750 C 665.848 2096.813,662.967 2103.900,662.036 2110.500 L 660.343 2122.500 666.577 2110.500 C 670.005 2103.900,673.978 2098.050,675.405 2097.500 C 678.685 2096.236,678.820 2091.000,675.573 2091.000 C 674.239 2091.000,671.028 2092.688,668.438 2094.750 M609.000 2104.731 L 601.500 2109.250 609.000 2107.288 C 613.125 2106.209,617.783 2104.127,619.350 2102.663 C 623.932 2098.381,617.359 2099.695,609.000 2104.731 M966.211 2279.073 C 966.327 2280.408,967.582 2284.200,969.000 2287.500 C 971.486 2293.285,971.586 2293.264,971.789 2286.927 C 971.905 2283.312,970.650 2279.520,969.000 2278.500 C 967.350 2277.480,966.095 2277.738,966.211 2279.073 M970.616 2356.051 C 972.318 2364.874,984.015 2382.985,986.443 2380.557 C 987.196 2379.804,985.267 2375.433,982.156 2370.844 C 979.045 2366.255,974.805 2359.125,972.733 2355.000 L 968.966 2347.500 970.616 2356.051 " stroke="none" fill="black" fill-rule="evenodd"/></svg>