# Blender v2.93.4 OBJ File: 'model.blend'
# www.blender.org
mtllib model.mtl
o Star_Circle
v -0.000000 3.009135 -0.058555
v -2.861858 0.929874 -0.058555
v -1.768725 -2.434442 -0.058555
v 1.768726 -2.434442 -0.058555
v 2.861858 0.929874 -0.058555
v 0.783710 1.078685 -0.058555
v -0.783710 1.078685 -0.058555
v -1.268070 -0.412021 -0.058555
v 0.000000 -1.333328 -0.058555
v 1.268070 -0.412021 -0.058555
v -0.000000 -0.000000 -0.573112
v -0.000000 3.009135 0.058555
v -2.861858 0.929874 0.058555
v -1.768725 -2.434442 0.058555
v 1.768726 -2.434442 0.058555
v 2.861858 0.929874 0.058555
v 0.783710 1.078685 0.058555
v -0.783710 1.078685 0.058555
v -1.268070 -0.412021 0.058555
v 0.000000 -1.333328 0.058555
v 1.268070 -0.412021 0.058555
v -0.000000 -0.000000 0.573112
vt 0.812719 0.142061
vt 0.778166 0.268194
vt 0.688457 0.000000
vt 0.674677 0.188234
vt 1.000000 0.093571
vt 0.898035 0.255320
vt 1.000000 0.413588
vt 0.812719 0.371492
vt 0.688457 0.517797
vt 0.674677 0.330032
vt 0.495913 0.262186
vt 0.175865 0.334860
vt 0.000000 0.257935
vt 0.264858 0.272053
vt 0.175865 0.190725
vt 0.189421 0.526333
vt 0.311668 0.383152
vt 0.495913 0.434280
vt 0.395599 0.268862
vt 0.495913 0.108988
vt 0.311668 0.149937
vt 0.189421 0.000000
vt 0.572041 0.710787
vt 0.561166 0.710787
vt 0.561166 0.517797
vt 0.572041 0.517797
vt 0.539415 0.710787
vt 0.528539 0.710787
vt 0.528539 0.517797
vt 0.539414 0.517797
vt 0.517663 0.710787
vt 0.506788 0.710787
vt 0.506788 0.517797
vt 0.517663 0.517797
vt 0.582917 0.517797
vt 0.593792 0.517797
vt 0.593792 0.710787
vt 0.582917 0.710787
vt 0.582917 0.710787
vt 0.572041 0.710787
vt 0.572041 0.517797
vt 0.582917 0.517797
vt 0.550290 0.517797
vt 0.561166 0.517797
vt 0.550290 0.710787
vt 0.550290 0.517797
vt 0.550290 0.710787
vt 0.539415 0.710787
vt 0.604668 0.710787
vt 0.593792 0.710787
vt 0.593792 0.517797
vt 0.604668 0.517797
vt 0.517663 0.517797
vt 0.528539 0.517797
vt 0.528539 0.710787
vt 0.517663 0.710787
vt 0.495912 0.517797
vt 0.506788 0.517797
vt 0.506788 0.710787
vt 0.495912 0.710787
vn 0.2665 -0.3166 -0.9104
vn 0.0296 0.4128 -0.9104
vn 0.4017 0.0994 -0.9104
vn -0.2187 -0.3513 -0.9103
vn 0.2187 -0.3513 -0.9103
vn -0.4017 0.0994 -0.9104
vn -0.2665 -0.3166 -0.9104
vn -0.0296 0.4128 -0.9104
vn -0.3834 0.1557 -0.9104
vn 0.3834 0.1557 -0.9104
vn 0.2665 -0.3166 0.9104
vn 0.0296 0.4128 0.9104
vn 0.4017 0.0994 0.9104
vn -0.2187 -0.3513 0.9104
vn 0.2187 -0.3513 0.9104
vn -0.4017 0.0994 0.9104
vn -0.2665 -0.3166 0.9104
vn -0.0296 0.4128 0.9104
vn -0.3834 0.1557 0.9104
vn 0.3834 0.1557 0.9104
vn 0.9266 0.3762 0.0000
vn 0.5285 -0.8489 0.0000
vn 0.6441 -0.7650 0.0000
vn -0.0714 0.9974 0.0000
vn 0.9707 0.2403 0.0000
vn -0.9266 0.3762 0.0000
vn -0.9707 0.2403 0.0000
vn 0.0714 0.9974 0.0000
vn -0.6441 -0.7650 0.0000
vn -0.5285 -0.8489 0.0000
usemtl Star
s 1
f 10/1/1 11/2/1 5/3/1
f 5/3/2 11/2/2 6/4/2
f 4/5/3 11/2/3 10/1/3
f 9/6/4 11/2/4 4/5/4
f 3/7/5 11/2/5 9/6/5
f 8/8/6 11/2/6 3/7/6
f 2/9/7 11/2/7 8/8/7
f 7/10/8 11/2/8 2/9/8
f 1/11/9 11/2/9 7/10/9
f 6/4/10 11/2/10 1/11/10
f 21/12/11 16/13/11 22/14/11
f 16/13/12 17/15/12 22/14/12
f 15/16/13 21/12/13 22/14/13
f 20/17/14 15/16/14 22/14/14
f 14/18/15 20/17/15 22/14/15
f 19/19/16 14/18/16 22/14/16
f 13/20/17 19/19/17 22/14/17
f 18/21/18 13/20/18 22/14/18
f 12/22/19 18/21/19 22/14/19
f 17/15/20 12/22/20 22/14/20
f 1/23/21 12/24/21 17/25/21 6/26/21
f 9/27/22 20/28/22 14/29/22 3/30/22
f 5/31/23 16/32/23 21/33/23 10/34/23
f 2/35/24 13/36/24 18/37/24 7/38/24
f 10/39/25 21/40/25 15/41/25 4/42/25
f 7/43/26 18/44/26 12/24/26 1/45/26
f 3/30/27 14/46/27 19/47/27 8/48/27
f 6/49/28 17/50/28 16/51/28 5/52/28
f 8/53/29 19/54/29 13/55/29 2/56/29
f 4/57/30 15/58/30 20/59/30 9/60/30
